<svg width="26" height="26" viewBox="0 0 26 26" fill="none" xmlns="http://www.w3.org/2000/svg">
<g id="Search">
<path id="Icon" fill-rule="evenodd" clip-rule="evenodd" d="M10.4 5.19998C7.52811 5.19998 5.2 7.52809 5.2 10.4C5.2 13.2719 7.52811 15.6 10.4 15.6C13.2719 15.6 15.6 13.2719 15.6 10.4C15.6 7.52809 13.2719 5.19998 10.4 5.19998ZM2.60001 10.4C2.60001 6.09215 6.09217 2.59998 10.4 2.59998C14.7078 2.59998 18.2 6.09215 18.2 10.4C18.2 12.0846 17.6659 13.6444 16.7579 14.9195L23.0192 21.1807C23.5269 21.6884 23.5269 22.5115 23.0192 23.0192C22.5115 23.5269 21.6884 23.5269 21.1807 23.0192L14.9195 16.7579C13.6444 17.6659 12.0846 18.2 10.4 18.2C6.09217 18.2 2.60001 14.7078 2.60001 10.4Z" fill="#425486"/>
</g>
</svg>
